<?xml version="1.0" encoding="iso-8859-1"?>
<!-- Uploaded to: SVG Repo, www.svgrepo.com, Generator: SVG Repo Mixer Tools -->
<svg fill="currentColor" height="800px" width="800px" version="1.1" id="Layer_1" xmlns="http://www.w3.org/2000/svg" xmlns:xlink="http://www.w3.org/1999/xlink" 
	 viewBox="0 0 512 512" xml:space="preserve">
<g>
	<g>
		<path d="M461.913,111.304h-61.217V50.087C400.696,22.469,378.227,0,350.609,0c-3.308,0-197.334,0-200.348,0
			c-27.618,0-50.087,22.469-50.087,50.087v61.217H50.087C22.469,111.304,0,133.773,0,161.391v300.522
			C0,489.531,22.469,512,50.087,512h411.826C489.531,512,512,489.531,512,461.913c0-11.705,0-292.856,0-300.522
			C512,133.773,489.531,111.304,461.913,111.304z M333.913,33.391h16.696c9.206,0,16.696,7.49,16.696,16.696v61.217h-33.391V33.391z
			 M267.13,33.391h33.391v77.913H267.13V33.391z M133.565,50.087c0-9.206,7.49-16.696,16.696-16.696h83.478v77.913H133.565V50.087z
			 M33.391,211.478h378.435v33.391h-33.391c-36.824,0-66.783,29.959-66.783,66.783s29.959,66.783,66.783,66.783h33.391v33.391
			H33.391V211.478z M478.609,461.913c0,9.206-7.49,16.696-16.696,16.696H50.087c-9.206,0-16.696-7.49-16.696-16.696v-16.696h395.13
			c9.22,0,16.696-7.475,16.696-16.696v-50.087h33.391V461.913z M478.609,345.043H378.435c-18.412,0-33.391-14.979-33.391-33.391
			c0-18.412,14.979-33.391,33.391-33.391h100.174V345.043z M478.609,244.87h-33.391v-50.087c0-9.22-7.475-16.696-16.696-16.696
			H33.391v-16.696c0-9.206,7.49-16.696,16.696-16.696c8.5,0,403.331,0,411.826,0c9.206,0,16.696,7.49,16.696,16.696V244.87z"/>
	</g>
</g>
<g>
	<g>
		<circle cx="395.13" cy="311.652" r="16.696"/>
	</g>
</g>
</svg>